<svg width="220" height="60" viewBox="0 0 220 60" fill="none" xmlns="http://www.w3.org/2000/svg"><defs><linearGradient id="docGN" x1="0" y1="4" x2="52" y2="56" gradientUnits="userSpaceOnUse">
  <stop stop-color="#1A5FA8"/><stop offset="1" stop-color="#0D3568"/></linearGradient>
<linearGradient id="docGN2" x1="6" y1="8" x2="46" y2="56" gradientUnits="userSpaceOnUse">
  <stop stop-color="#1A6BC8"/><stop offset="1" stop-color="#0D3568"/></linearGradient>
<linearGradient id="arrGN" x1="9" y1="46" x2="43" y2="12" gradientUnits="userSpaceOnUse">
  <stop stop-color="#00B87A"/><stop offset="1" stop-color="#00E8A0"/></linearGradient>
<linearGradient id="meiGN" x1="60" y1="30" x2="160" y2="50" gradientUnits="userSpaceOnUse">
  <stop stop-color="#00A86B"/><stop offset="1" stop-color="#00CC85"/></linearGradient><linearGradient id="meiGN" x1="60" y1="30" x2="160" y2="50" gradientUnits="userSpaceOnUse"><stop stop-color="#00C87A"/><stop offset="1" stop-color="#00E8A0"/></linearGradient></defs><rect width="220" height="60" fill="#0D1E35"/><rect x="0" y="4" width="52" height="52" rx="10" fill="url(#docGN)"/><rect x="6" y="8" width="40" height="48" rx="7" fill="url(#docGN2)"/><path d="M34 8L46 8L46 20Z" fill="white" opacity=".15"/><path d="M34 8L46 20L34 20Z" fill="white" opacity=".08"/><rect x="10" y="34" width="6" height="12" rx="2" fill="white" opacity=".25"/><rect x="18" y="28" width="6" height="18" rx="2" fill="white" opacity=".35"/><rect x="26" y="22" width="6" height="24" rx="2" fill="white" opacity=".5"/><rect x="34" y="15" width="6" height="31" rx="2" fill="white" opacity=".7"/><line x1="9" y1="46" x2="43" y2="12" stroke="url(#arrGN)" stroke-width="3" stroke-linecap="round"/><path d="M43 12L36 12M43 12L43 19" stroke="url(#arrGN)" stroke-width="3" stroke-linecap="round" stroke-linejoin="round"/><text x="60" y="24" font-family="Nunito,sans-serif" font-weight="900" font-size="19" fill="#FFFFFF">Nota Fácil</text><text x="60" y="46" font-family="Nunito,sans-serif" font-weight="900" font-size="19" fill="url(#meiGN)">MEI</text></svg>