<svg width="420" height="200" viewBox="0 0 420 200" fill="none" xmlns="http://www.w3.org/2000/svg">
  <defs><linearGradient id="docG" x1="14" y1="18" x2="154" y2="186" gradientUnits="userSpaceOnUse">
  <stop stop-color="#1A5FA8"/><stop offset="1" stop-color="#0D3568"/>
</linearGradient><linearGradient id="arrG" x1="30" y1="158" x2="148" y2="46" gradientUnits="userSpaceOnUse">
  <stop stop-color="#00B87A"/><stop offset="1" stop-color="#00E8A0"/>
</linearGradient><linearGradient id="meiG" x1="174" y1="155" x2="320" y2="185" gradientUnits="userSpaceOnUse">
  <stop stop-color="#00A86B"/><stop offset="1" stop-color="#00CC85"/>
</linearGradient><linearGradient id="docGB" x1="14" y1="18" x2="154" y2="186" gradientUnits="userSpaceOnUse">
  <stop stop-color="rgba(255,255,255,.28)"/><stop offset="1" stop-color="rgba(255,255,255,.08)"/></linearGradient>
<linearGradient id="meiGB" x1="174" y1="155" x2="320" y2="185" gradientUnits="userSpaceOnUse">
  <stop stop-color="#00C87A"/><stop offset="1" stop-color="#00F0A8"/></linearGradient></defs>
  <rect width="420" height="200" fill="#1A3A6B"/>
  
<rect x="14" y="18" width="140" height="168" rx="16" fill="url(#docGB)"/>
<path d="M116 18L154 18L154 56Z" fill="white" opacity=".18"/>
<path d="M116 18L154 56L116 56Z" fill="white" opacity=".1"/>
<rect x="34" y="118" width="22" height="44" rx="4" fill="white" opacity="0.18"/><rect x="62" y="98" width="22" height="64" rx="4" fill="white" opacity="0.28"/><rect x="90" y="74" width="22" height="88" rx="4" fill="white" opacity="0.4"/><rect x="118" y="52" width="22" height="110" rx="4" fill="white" opacity="0.6"/>
<line x1="30" y1="158" x2="148" y2="46" stroke="url(#arrG)" stroke-width="10" stroke-linecap="round"/>
<path d="M148 46L126 44M148 46L146 68" stroke="url(#arrG)" stroke-width="10" stroke-linecap="round" stroke-linejoin="round"/><rect x="14" y="18" width="140" height="168" rx="16" fill="none" stroke="rgba(255,255,255,.2)" stroke-width="1.5"/><text x="174" y="76" font-family="Nunito,sans-serif" font-weight="900" font-size="52" fill="#FFFFFF">Nota</text>
<text x="174" y="130" font-family="Nunito,sans-serif" font-weight="900" font-size="52" fill="#FFFFFF">Fácil</text>
<text x="174" y="182" font-family="Nunito,sans-serif" font-weight="900" font-size="52" fill="url(#meiGB)">MEI</text>
</svg>